<svg width="260" height="256" viewBox="0 0 260 256" fill="none" xmlns="http://www.w3.org/2000/svg">
<path d="M166.867 1.3371C196.888 10.2153 222.697 29.6287 239.551 56.0105C256.406 82.3923 263.174 113.97 258.613 144.942C254.051 175.914 238.466 204.2 214.721 224.602C190.975 245.005 160.665 256.153 129.36 255.998C98.0538 255.844 67.8551 244.398 44.3121 223.763C20.7691 203.128 5.46337 174.69 1.20708 143.674C-3.04921 112.659 4.02986 81.1491 21.1436 54.9346C38.2574 28.7202 64.2562 9.5619 94.3632 0.979941L94.7243 2.247C64.9225 10.742 39.1872 29.7061 22.2469 55.6549C5.30656 81.6037 -1.70077 112.794 2.51238 143.495C6.72554 174.196 21.8762 202.346 45.1805 222.772C68.4849 243.198 98.3776 254.528 129.366 254.681C160.355 254.834 190.357 243.798 213.862 223.603C237.366 203.408 252.794 175.409 257.309 144.75C261.824 114.092 255.125 82.8343 238.441 56.7199C221.757 30.6054 196.21 11.3887 166.493 2.60055L166.867 1.3371Z" fill="#D9D9D9"/>
</svg>
