<svg width="260" height="261" viewBox="0 0 260 261" fill="none" xmlns="http://www.w3.org/2000/svg">
<circle cx="130" cy="4" r="4" fill="#FCFCFC"/>
<path d="M166.867 6.3371C196.888 15.2153 222.697 34.6287 239.551 61.0105C256.406 87.3923 263.174 118.97 258.613 149.942C254.051 180.914 238.466 209.2 214.721 229.602C190.975 250.005 160.665 261.153 129.36 260.998C98.0538 260.844 67.8551 249.398 44.3121 228.763C20.7691 208.128 5.46337 179.69 1.20708 148.674C-3.04921 117.659 4.02986 86.1491 21.1436 59.9346C38.2574 33.7202 64.2562 14.5619 94.3632 5.97994L94.7243 7.247C64.9225 15.742 39.1872 34.7061 22.2469 60.6549C5.30656 86.6037 -1.70077 117.794 2.51238 148.495C6.72554 179.196 21.8762 207.346 45.1805 227.772C68.4849 248.198 98.3776 259.528 129.366 259.681C160.355 259.834 190.357 248.798 213.862 228.603C237.366 208.408 252.794 180.409 257.309 149.75C261.824 119.092 255.125 87.8343 238.441 61.7199C221.757 35.6054 196.21 16.3887 166.493 7.60055L166.867 6.3371Z" fill="#D9D9D9"/>
</svg>
