<svg width="66" height="66" viewBox="0 0 66 66" fill="none" xmlns="http://www.w3.org/2000/svg">
<g opacity="0.5">
<path d="M31.7773 4.49038V-0.000976562H32.9035C33.2971 -0.000976562 33.639 0.089358 33.9291 0.270027C34.2213 0.450697 34.4465 0.709521 34.6048 1.0465C34.7651 1.38145 34.8452 1.78034 34.8452 2.24318C34.8452 2.70602 34.7651 3.10593 34.6048 3.44291C34.4465 3.77786 34.2213 4.03668 33.9291 4.21938C33.639 4.40005 33.2971 4.49038 32.9035 4.49038H31.7773ZM32.8426 0.455772H32.3008V4.03364H32.8426C33.1307 4.03364 33.3853 3.96157 33.6065 3.81744C33.8297 3.67128 34.0042 3.46422 34.13 3.19626C34.2558 2.9283 34.3187 2.61061 34.3187 2.24318C34.3187 1.87372 34.2558 1.55603 34.13 1.2901C34.0042 1.02214 33.8297 0.816096 33.6065 0.671966C33.3853 0.527837 33.1307 0.455772 32.8426 0.455772Z" fill="white"/>
<path d="M41.1133 5.14614L41.008 5.59057L38.6211 5.02459L39.6563 0.654297L42.0435 1.22028L41.9381 1.66473L40.0574 1.2188L39.6995 2.72988L41.2513 3.09786L41.146 3.54229L39.5942 3.17433L39.2328 4.70024L41.1133 5.14614Z" fill="white"/>
<path d="M45.8057 7.57866C45.3906 7.37002 45.1156 7.10807 44.9809 6.79281C44.849 6.47666 44.8831 6.11902 45.0836 5.71994L45.1765 5.53488L45.6416 5.76858L45.5527 5.94545C45.4135 6.22301 45.3853 6.45989 45.4685 6.65615C45.5525 6.85056 45.7333 7.01749 46.0106 7.15687C46.2971 7.30082 46.5384 7.36072 46.7344 7.33655C46.9304 7.31239 47.0836 7.19055 47.1938 6.97104C47.2713 6.81685 47.2928 6.66756 47.2585 6.52315C47.227 6.37784 47.1546 6.23245 47.0416 6.087C46.9292 5.93973 46.7894 5.7865 46.6218 5.62733C46.4333 5.44634 46.2777 5.25905 46.1545 5.06547C46.0334 4.87278 45.9605 4.67384 45.9364 4.46861C45.9151 4.2625 45.9603 4.04787 46.0723 3.82476C46.2363 3.49821 46.479 3.30664 46.8001 3.25C47.1215 3.19339 47.4707 3.25983 47.8479 3.44933C48.2487 3.65066 48.521 3.90443 48.6646 4.21064C48.8083 4.51684 48.7845 4.86042 48.5934 5.24137L48.4909 5.44544L48.0259 5.21177L48.1188 5.02674C48.2517 4.76188 48.2742 4.53814 48.1866 4.3555C48.0997 4.17105 47.9196 4.01005 47.6456 3.87248C47.3829 3.74037 47.1564 3.68459 46.9667 3.70513C46.7772 3.72567 46.6295 3.84116 46.5238 4.05161C46.4447 4.20942 46.4225 4.36189 46.4576 4.50903C46.4956 4.65527 46.5725 4.80293 46.6883 4.95201C46.805 5.09929 46.945 5.25479 47.1081 5.41848C47.3064 5.61584 47.4659 5.80723 47.5862 5.99263C47.7092 6.17715 47.7792 6.36564 47.7962 6.55814C47.8149 6.75154 47.7682 6.95982 47.6562 7.18293C47.4886 7.51673 47.2411 7.71828 46.9134 7.78761C46.5865 7.85513 46.2174 7.78546 45.8057 7.57866Z" fill="white"/>
<path d="M51.3242 11.13L54.2099 7.68945L54.6015 8.01827L51.716 11.4588L51.3242 11.13Z" fill="white"/>
<path d="M56.0035 16.2114C55.8036 15.9426 55.6951 15.6438 55.678 15.3149C55.661 14.9861 55.7415 14.654 55.9195 14.3188C56.0976 13.9837 56.3805 13.6719 56.7678 13.3834C57.1551 13.0949 57.5354 12.9142 57.9085 12.8412C58.2819 12.7682 58.6252 12.7895 58.9389 12.9051C59.2554 13.0212 59.5179 13.2192 59.7263 13.4993C59.8959 13.7273 59.9996 13.95 60.0374 14.1672C60.0779 14.385 60.0727 14.5902 60.0211 14.7829C59.9726 14.9759 59.8953 15.1475 59.7894 15.2973C59.6849 15.4459 59.5717 15.5656 59.4496 15.6566L59.4203 15.6785L59.1186 15.2729L59.1478 15.2512C59.2797 15.1529 59.3867 15.0265 59.4688 14.8716C59.551 14.7169 59.5869 14.5458 59.5766 14.3586C59.5678 14.1702 59.4909 13.9784 59.3455 13.7829C59.1988 13.586 59.0113 13.4459 58.7826 13.3632C58.5554 13.282 58.2963 13.2737 58.0055 13.3385C57.7176 13.4036 57.4092 13.5586 57.0805 13.8036C56.7451 14.0533 56.503 14.3056 56.3539 14.561C56.2066 14.8149 56.1388 15.0604 56.1504 15.2971C56.1638 15.5328 56.2427 15.7473 56.3868 15.9412C56.531 16.1348 56.6824 16.2688 56.8412 16.3427C57.0013 16.4184 57.1564 16.4536 57.3065 16.4481C57.4583 16.4412 57.5904 16.4113 57.7026 16.3581L58.081 16.0762L57.4248 15.1946L57.774 14.9345L58.71 16.1923L57.0084 17.4596L56.7775 17.1494L57.1616 16.8293C57.1275 16.8344 57.0709 16.835 56.9918 16.8305C56.9127 16.8263 56.8191 16.806 56.7114 16.7698C56.6047 16.7353 56.4896 16.6742 56.3663 16.5865C56.2443 16.4976 56.1236 16.3726 56.0035 16.2114Z" fill="white"/>
<path d="M58.8604 20.8887L58.6602 20.4244L62.7823 18.6455L63.1187 19.4256L60.0904 22.7652L63.8577 21.1396L64.0578 21.6036L59.9356 23.3825L59.5945 22.5912L62.6107 19.2699L58.8604 20.8887Z" fill="white"/>
<path d="M61.577 33.2393L65.9989 34.7354L65.9518 35.5439L61.3867 36.5071L61.418 35.972L62.6242 35.7282L62.7155 34.1597L61.546 33.7742L61.577 33.2393ZM63.1641 34.3078L63.087 35.6332L65.626 35.1192L63.1641 34.3078Z" fill="white"/>
<path d="M60.6067 40.3262L60.7515 39.8418L65.0523 41.13L64.8086 41.9439L60.3433 42.5547L64.2735 43.7321L64.1287 44.2162L59.8281 42.928L60.0751 42.1026L64.5195 41.4981L60.6067 40.3262Z" fill="white"/>
<path d="M58.3578 46.1689L62.2456 48.4147L61.6826 49.3903C61.4857 49.7314 61.2366 49.9825 60.9351 50.1437C60.6325 50.3065 60.2959 50.372 59.9252 50.3408C59.5551 50.3121 59.1696 50.1822 58.7691 49.9508C58.3683 49.7194 58.0624 49.45 57.8507 49.1425C57.6399 48.838 57.5285 48.5134 57.5166 48.1689C57.5052 47.8272 57.5979 47.4858 57.7947 47.1448L58.3578 46.1689ZM61.3175 49.1092L61.5884 48.6398L58.4915 46.851L58.2206 47.3204C58.0766 47.57 58.0116 47.8266 58.0256 48.0903C58.0407 48.3569 58.1326 48.6114 58.3016 48.8544C58.4708 49.0974 58.7143 49.3108 59.0322 49.4945C59.3522 49.6792 59.6586 49.7835 59.9516 49.8075C60.2466 49.8325 60.5122 49.7843 60.7484 49.6632C60.9838 49.5436 61.1735 49.3589 61.3175 49.1092Z" fill="white"/>
<path d="M49.7607 56.1367L52.2275 59.8892L51.2867 60.5081C50.9578 60.7247 50.6224 60.8372 50.2809 60.8457C49.9374 60.8554 49.6071 60.7629 49.2899 60.5684C48.972 60.3768 48.6859 60.0875 48.4316 59.7008C48.1774 59.3141 48.0248 58.9359 47.9737 58.5662C47.9219 58.1994 47.9678 57.8594 48.1117 57.5459C48.2549 57.2356 48.4909 56.9721 48.8198 56.7557L49.7607 56.1367ZM51.0866 60.0932L51.5393 59.7954L49.5742 56.806L49.1215 57.1038C48.8807 57.2624 48.7076 57.4625 48.6019 57.7045C48.4958 57.9493 48.4637 58.2183 48.5057 58.5112C48.5479 58.8043 48.6698 59.1044 48.8715 59.4113C49.0744 59.7201 49.3015 59.9509 49.5527 60.1039C49.8051 60.2586 50.064 60.3347 50.3296 60.3325C50.5936 60.3313 50.846 60.2515 51.0866 60.0932Z" fill="white"/>
<path d="M41.6015 60.7238L41.4453 60.2947L43.7505 59.4551L45.2859 63.6756L42.9807 64.515L42.8246 64.0859L44.6406 63.4245L44.1098 61.9654L42.6112 62.511L42.455 62.0817L43.9536 61.536L43.4175 60.0625L41.6015 60.7238Z" fill="white"/>
<path d="M36.5109 61.2871L38.2469 65.6305L37.6816 65.6966L36.1917 61.8088L35.6502 65.9341L35.082 66.0005L35.7581 61.375L36.5109 61.2871Z" fill="white"/>
<path d="M28.2572 61.6178L28.3103 61.1641L30.7468 61.4489L30.2255 65.91L27.7891 65.625L27.842 65.1713L29.7617 65.3958L29.9418 63.8534L28.3578 63.6681L28.4108 63.2145L29.9948 63.3997L30.1768 61.8421L28.2572 61.6178Z" fill="white"/>
<path d="M24.095 60.0969L22.5594 64.3172L22.0704 64.1392L23.4498 60.348L21.7852 59.7418L21.9414 59.3125L24.095 60.0969Z" fill="white"/>
<path d="M17.2396 56.6678C17.5295 56.8585 17.7383 57.1041 17.8663 57.4045C17.9915 57.7056 18.0236 58.0426 17.9629 58.4157C17.9022 58.7888 17.7381 59.179 17.4705 59.586C17.2018 59.9946 16.9092 60.2991 16.5931 60.4993C16.2754 60.6984 15.9546 60.7983 15.6309 60.7993C15.3063 60.8017 14.9991 60.7077 14.7092 60.5169C14.4176 60.3251 14.2086 60.0795 14.0824 59.7802C13.9533 59.4814 13.918 59.1473 13.9767 58.7776C14.0351 58.4078 14.1987 58.0186 14.4673 57.6098C14.7349 57.2027 15.0287 56.898 15.3489 56.6957C15.6673 56.492 15.9893 56.3881 16.3151 56.3838C16.6398 56.3812 16.948 56.476 17.2396 56.6678ZM16.9821 57.0596C16.6684 56.8532 16.3297 56.8126 15.9657 56.9376C15.6007 57.0643 15.2487 57.3854 14.9098 57.9011C14.5698 58.4183 14.417 58.8669 14.4515 59.2468C14.4858 59.6266 14.6582 59.9185 14.9685 60.1227C15.2769 60.3257 15.6131 60.3683 15.9771 60.2506C16.3393 60.1318 16.6905 59.8137 17.0306 59.2965C17.3694 58.7809 17.524 58.3298 17.494 57.9431C17.4611 57.5572 17.2905 57.2626 16.9821 57.0596Z" fill="white"/>
<path d="M12.8573 53.1592L13.2144 53.538L9.94907 56.6201L9.0844 55.7032C8.84629 55.4506 8.6958 55.1965 8.6329 54.9405C8.56854 54.6859 8.57633 54.4427 8.65628 54.2109C8.73622 53.9791 8.87286 53.772 9.0662 53.5895C9.25955 53.407 9.4785 53.2814 9.72308 53.2124C9.96626 53.1419 10.2174 53.1433 10.4765 53.217C10.7327 53.2905 10.9771 53.4507 11.2096 53.6971L11.7172 54.2355L12.8573 53.1592ZM9.46032 55.4362L9.92399 55.9279L11.3851 54.5489L10.9214 54.0573C10.6708 53.7913 10.4149 53.6575 10.1537 53.6557C9.89106 53.6553 9.64829 53.7603 9.42544 53.9706C9.20111 54.1823 9.0868 54.4115 9.08247 54.6585C9.07677 54.9038 9.20273 55.1632 9.46032 55.4362Z" fill="white"/>
<path d="M3.81849 48.3785L3.37109 47.6032L7.25887 45.3574L7.5054 45.7847L4.0288 47.7928L8.06997 46.763L8.44129 47.4065L5.52967 50.3997L9.00891 48.39L9.25543 48.8173L5.36766 51.0629L4.92026 50.2877L7.88702 47.3048L3.81849 48.3785Z" fill="white"/>
<path d="M4.89061 39.9415L5.32796 39.8105L6.03151 42.1617L1.73089 43.4499L1.02734 41.0988L1.4647 40.9676L2.01899 42.82L3.50598 42.3746L3.04858 40.846L3.48593 40.7151L3.94332 42.2437L5.4449 41.7939L4.89061 39.9415Z" fill="white"/>
<path d="M4.63947 35.5611L4.66885 36.0657L0.187218 36.327L0.137852 35.4789L4.12511 33.3766L0.0293598 33.6153L0 33.1107L4.48161 32.8496L4.53171 33.7099L0.561959 35.7988L4.63947 35.5611Z" fill="white"/>
<path d="M1.28392 25.7374L1.07937 26.8979L5.0508 27.5985L4.96096 28.1084L0.989528 27.4076L0.785529 28.5651L0.335938 28.486L0.834307 25.6582L1.28392 25.7374Z" fill="white"/>
<path d="M9.3259 17.1236L6.45312 13.4427L6.93658 12.793L11.2797 14.4981L10.9598 14.9278L9.81808 14.4684L8.88027 15.7288L9.64578 16.6937L9.3259 17.1236ZM8.58677 15.3584L9.37918 14.2934L6.9756 13.3269L8.58677 15.3584Z" fill="white"/>
<path d="M14.0306 11.7392L13.6434 12.0641L10.7578 8.62353L11.4083 8.07746L15.4746 10.022L12.8375 6.87763L13.2245 6.55273L16.1101 9.99331L15.4503 10.5472L11.405 8.60887L14.0306 11.7392Z" fill="white"/>
<path d="M19.1203 8.09229L17.1055 4.07867L18.1119 3.57302C18.4637 3.39628 18.8096 3.32349 19.1499 3.35467C19.4922 3.38492 19.8095 3.51508 20.1021 3.74516C20.3955 3.9725 20.6461 4.29299 20.8539 4.70658C21.0615 5.1202 21.1692 5.51355 21.1771 5.88666C21.1858 6.25705 21.1008 6.58946 20.9217 6.88393C20.7433 7.17567 20.4783 7.40991 20.1267 7.58666L19.1203 8.09229ZM18.2624 4.00851L17.7783 4.25176L19.3833 7.44907L19.8674 7.20581C20.1249 7.07644 20.3201 6.8977 20.453 6.66961C20.5869 6.43878 20.65 6.17539 20.6423 5.87945C20.6343 5.5835 20.5481 5.27135 20.3834 4.94302C20.2176 4.61286 20.0187 4.3572 19.787 4.17603C19.5545 3.99306 19.3062 3.88728 19.042 3.8587C18.7798 3.8292 18.5199 3.87916 18.2624 4.00851Z" fill="white"/>
</g>
</svg>
