<svg width="13" height="15" viewBox="0 0 13 15" fill="none" xmlns="http://www.w3.org/2000/svg">
<path d="M11.8281 8.89062C12.5156 9.28646 12.8594 9.74479 12.8594 10.2656C12.8594 10.4531 12.8073 10.6354 12.7031 10.8125C12.5156 11.1458 12.2187 11.3125 11.8125 11.3125C11.4687 11.3125 11.0781 11.1875 10.6406 10.9375C10.3177 10.75 9.98958 10.5104 9.65625 10.2187C9.33333 9.92708 8.88542 9.49479 8.3125 8.92187C7.75 8.34896 7.30208 7.90104 6.96875 7.57812C7.09375 8.05729 7.26042 8.69271 7.46875 9.48437C7.6875 10.276 7.84375 10.8854 7.9375 11.3125C8.03125 11.7292 8.08333 12.1094 8.09375 12.4531C8.08333 13.0469 7.95833 13.4844 7.71875 13.7656C7.47917 14.0365 7.1875 14.1719 6.84375 14.1719C6.53125 14.1719 6.26562 14.0365 6.04687 13.7656C5.82812 13.4948 5.71875 13.0573 5.71875 12.4531C5.71875 12.0885 5.76042 11.6979 5.84375 11.2812C5.9375 10.8542 6.08854 10.25 6.29687 9.46875C6.51562 8.6875 6.6875 8.05729 6.8125 7.57812C6.45833 7.91146 5.98958 8.375 5.40625 8.96875C4.83333 9.55208 4.38542 9.98958 4.0625 10.2812C3.73958 10.5625 3.42708 10.7917 3.125 10.9687C2.70833 11.2083 2.32812 11.3281 1.98437 11.3281C1.53646 11.3281 1.21354 11.1458 1.01562 10.7812C0.921875 10.6146 0.875 10.4531 0.875 10.2969C0.875 9.80729 1.22917 9.34896 1.9375 8.92187C2.25 8.74479 2.60417 8.59375 3 8.46875C3.39583 8.33333 3.98437 8.16667 4.76562 7.96875C5.55729 7.76042 6.19792 7.58333 6.6875 7.4375C6.22917 7.30208 5.59896 7.13021 4.79687 6.92187C4.00521 6.71354 3.40104 6.54167 2.98437 6.40625C2.57812 6.27083 2.21875 6.11979 1.90625 5.95312C1.22917 5.54687 0.890625 5.08854 0.890625 4.57812C0.890625 4.39062 0.942708 4.20833 1.04687 4.03125C1.21354 3.69792 1.50521 3.53125 1.92187 3.53125C2.26562 3.53125 2.65625 3.65625 3.09375 3.90625C3.41667 4.09375 3.73958 4.33333 4.0625 4.625C4.38542 4.91667 4.82812 5.35417 5.39062 5.9375C5.96354 6.51042 6.42708 6.96354 6.78125 7.29687C6.67708 6.84896 6.51562 6.22917 6.29687 5.4375C6.07812 4.63542 5.92187 4.02083 5.82812 3.59375C5.73437 3.15625 5.6875 2.76042 5.6875 2.40625C5.6875 1.8125 5.80208 1.375 6.03125 1.09375C6.26042 0.812499 6.54167 0.671874 6.875 0.671874C7.19792 0.671874 7.46875 0.812499 7.6875 1.09375C7.91667 1.375 8.03125 1.8125 8.03125 2.40625C8.03125 2.77083 7.98437 3.16667 7.89062 3.59375C7.80729 4.01042 7.65625 4.60937 7.4375 5.39062C7.22917 6.16146 7.0625 6.78646 6.9375 7.26562C7.29167 6.93229 7.75521 6.47396 8.32812 5.89062C8.91146 5.30729 9.35937 4.86979 9.67187 4.57812C9.99479 4.28646 10.3073 4.05208 10.6094 3.875C11.0469 3.63542 11.4271 3.51562 11.75 3.51562C12.2083 3.51562 12.5365 3.69792 12.7344 4.0625C12.8281 4.22917 12.875 4.39062 12.875 4.54687C12.875 5.05729 12.5156 5.51562 11.7969 5.92187C11.4844 6.09896 11.1302 6.25521 10.7344 6.39062C10.3385 6.51562 9.74479 6.68229 8.95312 6.89062C8.17187 7.08854 7.53646 7.26042 7.04687 7.40625C7.51562 7.54167 8.14583 7.71875 8.9375 7.9375C9.73958 8.14583 10.3437 8.31771 10.75 8.45312C11.1562 8.57812 11.5156 8.72396 11.8281 8.89062Z" fill="white"/>
</svg>
