<svg width="364" height="365" viewBox="0 0 364 365" fill="none" xmlns="http://www.w3.org/2000/svg">
<ellipse rx="5.50224" ry="5.49923" transform="matrix(-1 -0.00048055 0.000483726 -1 181.505 358.502)" fill="#FCFCFC"/>
<path d="M130.327 355.523C88.3239 343.111 52.2221 315.996 28.6548 279.161C5.08743 242.325 -4.36229 198.244 2.04183 155.016C8.44598 111.788 30.2738 72.3172 63.5147 43.8557C96.7556 15.3942 139.177 -0.146051 182.984 0.090241C226.791 0.326563 269.041 16.3236 301.971 45.142C334.901 73.9605 356.3 113.665 362.235 156.959C368.17 200.254 358.243 244.231 334.277 280.809C310.312 317.388 273.918 344.112 231.783 356.07L231.278 354.302C272.986 342.464 309.011 316.011 332.734 279.803C356.456 243.595 366.283 200.064 360.408 157.208C354.533 114.353 333.352 75.0508 300.755 46.5244C268.159 17.998 226.337 2.16314 182.974 1.92923C139.611 1.69531 97.6196 17.0781 64.7155 45.2512C31.8115 73.4242 10.2049 112.495 3.86571 155.285C-2.47354 198.075 6.88042 241.709 30.2089 278.171C53.5373 314.633 89.2733 341.473 130.851 353.76L130.327 355.523Z" fill="#D9D9D9"/>
</svg>
