<svg width="364" height="364" viewBox="0 0 364 364" fill="none" xmlns="http://www.w3.org/2000/svg">
<ellipse rx="5.49976" ry="5.49775" transform="matrix(1 0.000481317 -0.00048313 1 181.672 5.5209)" fill="#FCFCFC"/>
<path d="M233.672 8.47699C275.676 20.8894 311.778 48.0042 335.345 84.8395C358.912 121.675 368.362 165.756 361.958 208.984C355.554 252.212 333.726 291.683 300.485 320.144C267.244 348.606 224.823 364.146 181.016 363.91C137.209 363.673 94.9587 347.676 62.0283 318.858C29.0979 290.039 7.69935 250.335 1.76432 207.041C-4.17071 163.746 5.75648 119.769 29.7219 83.1906C53.6873 46.6118 90.0811 19.8881 132.216 7.92963L132.721 9.69845C91.0127 21.5357 54.9877 47.9886 31.2652 84.1967C7.54268 120.405 -2.2839 163.936 3.59098 206.792C9.46586 249.647 30.6476 288.949 63.2442 317.476C95.8409 346.002 137.663 361.837 181.026 362.071C224.389 362.305 266.38 346.922 299.284 318.749C332.188 290.576 353.795 251.505 360.134 208.715C366.473 165.925 357.119 122.291 333.791 85.8288C310.462 49.3669 274.726 22.5269 233.149 10.2403L233.672 8.47699Z" fill="#D9D9D9"/>
</svg>
