<svg width="66" height="85" viewBox="0 0 66 85" fill="none" xmlns="http://www.w3.org/2000/svg">
<g opacity="0.5">
<path d="M31.7773 6.49038V1.99902H32.9035C33.2971 1.99902 33.639 2.08936 33.9291 2.27003C34.2213 2.4507 34.4465 2.70952 34.6048 3.0465C34.7651 3.38145 34.8452 3.78034 34.8452 4.24318C34.8452 4.70602 34.7651 5.10593 34.6048 5.44291C34.4465 5.77786 34.2213 6.03668 33.9291 6.21938C33.639 6.40005 33.2971 6.49038 32.9035 6.49038H31.7773ZM32.8426 2.45577H32.3008V6.03364H32.8426C33.1307 6.03364 33.3853 5.96157 33.6065 5.81744C33.8297 5.67128 34.0042 5.46422 34.13 5.19626C34.2558 4.9283 34.3187 4.61061 34.3187 4.24318C34.3187 3.87372 34.2558 3.55603 34.13 3.2901C34.0042 3.02214 33.8297 2.8161 33.6065 2.67197C33.3853 2.52784 33.1307 2.45577 32.8426 2.45577Z" fill="white"/>
<path d="M41.1133 7.14614L41.008 7.59057L38.6211 7.02459L39.6563 2.6543L42.0435 3.22028L41.9381 3.66473L40.0574 3.2188L39.6995 4.72988L41.2513 5.09786L41.146 5.54229L39.5942 5.17433L39.2328 6.70024L41.1133 7.14614Z" fill="white"/>
<path d="M45.8057 9.57866C45.3906 9.37002 45.1156 9.10807 44.9809 8.79281C44.849 8.47666 44.8831 8.11902 45.0836 7.71994L45.1765 7.53489L45.6416 7.76858L45.5527 7.94545C45.4135 8.22301 45.3853 8.45989 45.4685 8.65615C45.5525 8.85056 45.7333 9.01749 46.0106 9.15687C46.2971 9.30082 46.5384 9.36072 46.7344 9.33655C46.9304 9.31239 47.0836 9.19055 47.1938 8.97104C47.2713 8.81685 47.2928 8.66756 47.2585 8.52315C47.227 8.37784 47.1546 8.23245 47.0416 8.087C46.9292 7.93973 46.7894 7.7865 46.6218 7.62733C46.4333 7.44634 46.2777 7.25905 46.1545 7.06547C46.0334 6.87278 45.9605 6.67384 45.9364 6.46861C45.9151 6.2625 45.9603 6.04787 46.0723 5.82476C46.2363 5.49821 46.479 5.30664 46.8001 5.25C47.1215 5.19339 47.4707 5.25983 47.8479 5.44933C48.2487 5.65066 48.521 5.90443 48.6646 6.21064C48.8083 6.51684 48.7845 6.86042 48.5934 7.24137L48.4909 7.44544L48.0259 7.21177L48.1188 7.02674C48.2517 6.76188 48.2742 6.53814 48.1866 6.3555C48.0997 6.17105 47.9196 6.01005 47.6456 5.87248C47.3829 5.74037 47.1564 5.68459 46.9667 5.70513C46.7772 5.72567 46.6295 5.84116 46.5238 6.05161C46.4447 6.20942 46.4225 6.36189 46.4576 6.50903C46.4956 6.65527 46.5725 6.80293 46.6883 6.95201C46.805 7.09929 46.945 7.25479 47.1081 7.41848C47.3064 7.61584 47.4659 7.80723 47.5862 7.99263C47.7092 8.17715 47.7792 8.36564 47.7962 8.55814C47.8149 8.75154 47.7682 8.95982 47.6562 9.18293C47.4886 9.51673 47.2411 9.71828 46.9134 9.78761C46.5865 9.85513 46.2174 9.78546 45.8057 9.57866Z" fill="white"/>
<path d="M51.3242 13.13L54.2099 9.68945L54.6015 10.0183L51.716 13.4588L51.3242 13.13Z" fill="white"/>
<path d="M56.0035 18.2114C55.8036 17.9426 55.6951 17.6438 55.678 17.3149C55.661 16.9861 55.7415 16.654 55.9195 16.3188C56.0976 15.9837 56.3805 15.6719 56.7678 15.3834C57.1551 15.0949 57.5354 14.9142 57.9085 14.8412C58.2819 14.7682 58.6252 14.7895 58.9389 14.9051C59.2554 15.0212 59.5179 15.2192 59.7263 15.4993C59.8959 15.7273 59.9996 15.95 60.0374 16.1672C60.0779 16.385 60.0727 16.5902 60.0211 16.7829C59.9726 16.9759 59.8953 17.1475 59.7894 17.2973C59.6849 17.4459 59.5717 17.5656 59.4496 17.6566L59.4203 17.6785L59.1186 17.2729L59.1478 17.2512C59.2797 17.1529 59.3867 17.0265 59.4688 16.8716C59.551 16.7169 59.5869 16.5458 59.5766 16.3586C59.5678 16.1702 59.4909 15.9784 59.3455 15.7829C59.1988 15.586 59.0113 15.4459 58.7826 15.3632C58.5554 15.282 58.2963 15.2737 58.0055 15.3385C57.7176 15.4036 57.4092 15.5586 57.0805 15.8036C56.7451 16.0533 56.503 16.3056 56.3539 16.561C56.2066 16.8149 56.1388 17.0604 56.1504 17.2971C56.1638 17.5328 56.2427 17.7473 56.3868 17.9412C56.531 18.1348 56.6824 18.2688 56.8412 18.3427C57.0013 18.4184 57.1564 18.4536 57.3065 18.4481C57.4583 18.4412 57.5904 18.4113 57.7026 18.3581L58.081 18.0762L57.4248 17.1946L57.774 16.9345L58.71 18.1923L57.0084 19.4596L56.7775 19.1494L57.1616 18.8293C57.1275 18.8344 57.0709 18.835 56.9918 18.8305C56.9127 18.8263 56.8191 18.806 56.7114 18.7698C56.6047 18.7353 56.4896 18.6742 56.3663 18.5865C56.2443 18.4976 56.1236 18.3726 56.0035 18.2114Z" fill="white"/>
<path d="M58.8604 22.8887L58.6602 22.4244L62.7823 20.6455L63.1187 21.4256L60.0904 24.7652L63.8577 23.1396L64.0578 23.6036L59.9356 25.3825L59.5945 24.5912L62.6107 21.2699L58.8604 22.8887Z" fill="white"/>
<path d="M61.577 35.2393L65.9989 36.7354L65.9518 37.5439L61.3867 38.5071L61.418 37.972L62.6242 37.7282L62.7155 36.1597L61.546 35.7742L61.577 35.2393ZM63.1641 36.3078L63.087 37.6332L65.626 37.1192L63.1641 36.3078Z" fill="white"/>
<path d="M60.6067 42.3262L60.7515 41.8418L65.0523 43.13L64.8086 43.9439L60.3433 44.5547L64.2735 45.7321L64.1287 46.2162L59.8281 44.928L60.0751 44.1026L64.5195 43.4981L60.6067 42.3262Z" fill="white"/>
<path d="M58.3578 48.1689L62.2456 50.4147L61.6826 51.3903C61.4857 51.7314 61.2366 51.9825 60.9351 52.1437C60.6325 52.3065 60.2959 52.372 59.9252 52.3408C59.5551 52.3121 59.1696 52.1822 58.7691 51.9508C58.3683 51.7194 58.0624 51.45 57.8507 51.1425C57.6399 50.838 57.5285 50.5134 57.5166 50.1689C57.5052 49.8272 57.5979 49.4858 57.7947 49.1448L58.3578 48.1689ZM61.3175 51.1092L61.5884 50.6398L58.4915 48.851L58.2206 49.3204C58.0766 49.57 58.0116 49.8266 58.0256 50.0903C58.0407 50.3569 58.1326 50.6114 58.3016 50.8544C58.4708 51.0974 58.7143 51.3108 59.0322 51.4945C59.3522 51.6792 59.6586 51.7835 59.9516 51.8075C60.2466 51.8325 60.5122 51.7843 60.7484 51.6632C60.9838 51.5436 61.1735 51.3589 61.3175 51.1092Z" fill="white"/>
<path d="M49.7607 58.1367L52.2275 61.8892L51.2867 62.5081C50.9578 62.7247 50.6224 62.8372 50.2809 62.8457C49.9374 62.8554 49.6071 62.7629 49.2899 62.5684C48.972 62.3768 48.6859 62.0875 48.4316 61.7008C48.1774 61.3141 48.0248 60.9359 47.9737 60.5662C47.9219 60.1994 47.9678 59.8594 48.1117 59.5459C48.2549 59.2356 48.4909 58.9721 48.8198 58.7557L49.7607 58.1367ZM51.0866 62.0932L51.5393 61.7954L49.5742 58.806L49.1215 59.1038C48.8807 59.2624 48.7076 59.4625 48.6019 59.7045C48.4958 59.9493 48.4637 60.2183 48.5057 60.5112C48.5479 60.8043 48.6698 61.1044 48.8715 61.4113C49.0744 61.7201 49.3015 61.9509 49.5527 62.1039C49.8051 62.2586 50.064 62.3347 50.3296 62.3325C50.5936 62.3313 50.846 62.2515 51.0866 62.0932Z" fill="white"/>
<path d="M41.6015 62.7238L41.4453 62.2947L43.7505 61.4551L45.2859 65.6756L42.9807 66.515L42.8246 66.0859L44.6406 65.4245L44.1098 63.9654L42.6112 64.511L42.455 64.0817L43.9536 63.536L43.4175 62.0625L41.6015 62.7238Z" fill="white"/>
<path d="M36.5109 63.2871L38.2469 67.6305L37.6816 67.6966L36.1917 63.8088L35.6502 67.9341L35.082 68.0005L35.7581 63.375L36.5109 63.2871Z" fill="white"/>
<path d="M28.2572 63.6178L28.3103 63.1641L30.7468 63.4489L30.2255 67.91L27.7891 67.625L27.842 67.1713L29.7617 67.3958L29.9418 65.8534L28.3578 65.6681L28.4108 65.2145L29.9948 65.3997L30.1768 63.8421L28.2572 63.6178Z" fill="white"/>
<path d="M24.095 62.0969L22.5594 66.3172L22.0704 66.1392L23.4498 62.348L21.7852 61.7418L21.9414 61.3125L24.095 62.0969Z" fill="white"/>
<path d="M17.2396 58.6678C17.5295 58.8585 17.7383 59.1041 17.8663 59.4045C17.9915 59.7056 18.0236 60.0426 17.9629 60.4157C17.9022 60.7888 17.7381 61.179 17.4705 61.586C17.2018 61.9946 16.9092 62.2991 16.5931 62.4993C16.2754 62.6984 15.9546 62.7983 15.6309 62.7993C15.3063 62.8017 14.9991 62.7077 14.7092 62.5169C14.4176 62.3251 14.2086 62.0795 14.0824 61.7802C13.9533 61.4814 13.918 61.1473 13.9767 60.7776C14.0351 60.4078 14.1987 60.0186 14.4673 59.6098C14.7349 59.2027 15.0287 58.898 15.3489 58.6957C15.6673 58.492 15.9893 58.3881 16.3151 58.3838C16.6398 58.3812 16.948 58.476 17.2396 58.6678ZM16.9821 59.0596C16.6684 58.8532 16.3297 58.8126 15.9657 58.9376C15.6007 59.0643 15.2487 59.3854 14.9098 59.9011C14.5698 60.4183 14.417 60.8669 14.4515 61.2468C14.4858 61.6266 14.6582 61.9185 14.9685 62.1227C15.2769 62.3257 15.6131 62.3683 15.9771 62.2506C16.3393 62.1318 16.6905 61.8137 17.0306 61.2965C17.3694 60.7809 17.524 60.3298 17.494 59.9431C17.4611 59.5572 17.2905 59.2626 16.9821 59.0596Z" fill="white"/>
<path d="M12.8573 55.1592L13.2144 55.538L9.94907 58.6201L9.0844 57.7032C8.84629 57.4506 8.6958 57.1965 8.6329 56.9405C8.56854 56.6859 8.57633 56.4427 8.65628 56.2109C8.73622 55.9791 8.87286 55.772 9.0662 55.5895C9.25955 55.407 9.4785 55.2814 9.72308 55.2124C9.96626 55.1419 10.2174 55.1433 10.4765 55.217C10.7327 55.2905 10.9771 55.4507 11.2096 55.6971L11.7172 56.2355L12.8573 55.1592ZM9.46032 57.4362L9.92399 57.9279L11.3851 56.5489L10.9214 56.0573C10.6708 55.7913 10.4149 55.6575 10.1537 55.6557C9.89106 55.6553 9.64829 55.7603 9.42544 55.9706C9.20111 56.1823 9.0868 56.4115 9.08247 56.6585C9.07677 56.9038 9.20273 57.1632 9.46032 57.4362Z" fill="white"/>
<path d="M3.81849 50.3785L3.37109 49.6032L7.25887 47.3574L7.5054 47.7847L4.0288 49.7928L8.06997 48.763L8.44129 49.4065L5.52967 52.3997L9.00891 50.39L9.25543 50.8173L5.36766 53.0629L4.92026 52.2877L7.88702 49.3048L3.81849 50.3785Z" fill="white"/>
<path d="M4.89061 41.9415L5.32796 41.8105L6.03151 44.1617L1.73089 45.4499L1.02734 43.0988L1.4647 42.9676L2.01899 44.82L3.50598 44.3746L3.04858 42.846L3.48593 42.7151L3.94332 44.2437L5.4449 43.7939L4.89061 41.9415Z" fill="white"/>
<path d="M4.63947 37.5611L4.66885 38.0657L0.187218 38.327L0.137852 37.4789L4.12511 35.3766L0.0293598 35.6153L0 35.1107L4.48161 34.8496L4.53171 35.7099L0.561959 37.7988L4.63947 37.5611Z" fill="white"/>
<path d="M1.28392 27.7374L1.07937 28.8979L5.0508 29.5985L4.96096 30.1084L0.989528 29.4076L0.785529 30.5651L0.335938 30.486L0.834307 27.6582L1.28392 27.7374Z" fill="white"/>
<path d="M9.3259 19.1236L6.45312 15.4427L6.93658 14.793L11.2797 16.4981L10.9598 16.9278L9.81808 16.4684L8.88027 17.7288L9.64578 18.6937L9.3259 19.1236ZM8.58677 17.3584L9.37918 16.2934L6.9756 15.3269L8.58677 17.3584Z" fill="white"/>
<path d="M14.0306 13.7392L13.6434 14.0641L10.7578 10.6235L11.4083 10.0775L15.4746 12.022L12.8375 8.87763L13.2245 8.55273L16.1101 11.9933L15.4503 12.5472L11.405 10.6089L14.0306 13.7392Z" fill="white"/>
<path d="M19.1203 10.0923L17.1055 6.07867L18.1119 5.57302C18.4637 5.39628 18.8096 5.32349 19.1499 5.35467C19.4922 5.38492 19.8095 5.51508 20.1021 5.74516C20.3955 5.9725 20.6461 6.29299 20.8539 6.70658C21.0615 7.1202 21.1692 7.51355 21.1771 7.88666C21.1858 8.25705 21.1008 8.58946 20.9217 8.88393C20.7433 9.17567 20.4783 9.40991 20.1267 9.58666L19.1203 10.0923ZM18.2624 6.00851L17.7783 6.25176L19.3833 9.44907L19.8674 9.20581C20.1249 9.07644 20.3201 8.8977 20.453 8.66961C20.5869 8.43878 20.65 8.17539 20.6423 7.87945C20.6343 7.5835 20.5481 7.27135 20.3834 6.94302C20.2176 6.61286 20.0187 6.3572 19.787 6.17603C19.5545 5.99306 19.3062 5.88728 19.042 5.8587C18.7798 5.8292 18.5199 5.87916 18.2624 6.00851Z" fill="white"/>
</g>
<path d="M42.6602 38.7812C44.0352 39.5729 44.7227 40.4896 44.7227 41.5312C44.7227 41.9062 44.6185 42.2708 44.4102 42.625C44.0352 43.2917 43.4414 43.625 42.6289 43.625C41.9414 43.625 41.1602 43.375 40.2852 42.875C39.6393 42.5 38.9831 42.0208 38.3164 41.4375C37.6706 40.8542 36.7747 39.9896 35.6289 38.8437C34.5039 37.6979 33.6081 36.8021 32.9414 36.1562C33.1914 37.1146 33.5247 38.3854 33.9414 39.9687C34.3789 41.5521 34.6914 42.7708 34.8789 43.625C35.0664 44.4583 35.1706 45.2187 35.1914 45.9062C35.1706 47.0937 34.9206 47.9687 34.4414 48.5312C33.9622 49.0729 33.3789 49.3437 32.6914 49.3437C32.0664 49.3437 31.5352 49.0729 31.0977 48.5312C30.6602 47.9896 30.4414 47.1146 30.4414 45.9062C30.4414 45.1771 30.5247 44.3958 30.6914 43.5625C30.8789 42.7083 31.181 41.5 31.5977 39.9375C32.0352 38.375 32.3789 37.1146 32.6289 36.1562C31.9206 36.8229 30.9831 37.75 29.8164 38.9375C28.6706 40.1042 27.7747 40.9792 27.1289 41.5625C26.4831 42.125 25.8581 42.5833 25.2539 42.9375C24.4206 43.4167 23.6602 43.6562 22.9727 43.6562C22.0768 43.6562 21.431 43.2917 21.0352 42.5625C20.8477 42.2292 20.7539 41.9062 20.7539 41.5937C20.7539 40.6146 21.4622 39.6979 22.8789 38.8437C23.5039 38.4896 24.2122 38.1875 25.0039 37.9375C25.7956 37.6667 26.9727 37.3333 28.5352 36.9375C30.1185 36.5208 31.3997 36.1667 32.3789 35.875C31.4622 35.6042 30.2018 35.2604 28.5977 34.8437C27.0143 34.4271 25.806 34.0833 24.9727 33.8125C24.1602 33.5417 23.4414 33.2396 22.8164 32.9062C21.4622 32.0937 20.7852 31.1771 20.7852 30.1562C20.7852 29.7812 20.8893 29.4167 21.0977 29.0625C21.431 28.3958 22.0143 28.0625 22.8477 28.0625C23.5352 28.0625 24.3164 28.3125 25.1914 28.8125C25.8372 29.1875 26.4831 29.6667 27.1289 30.25C27.7747 30.8333 28.6602 31.7083 29.7852 32.875C30.931 34.0208 31.8581 34.9271 32.5664 35.5937C32.3581 34.6979 32.0352 33.4583 31.5977 31.875C31.1602 30.2708 30.8477 29.0417 30.6602 28.1875C30.4727 27.3125 30.3789 26.5208 30.3789 25.8125C30.3789 24.625 30.6081 23.75 31.0664 23.1875C31.5247 22.625 32.0872 22.3437 32.7539 22.3437C33.3997 22.3437 33.9414 22.625 34.3789 23.1875C34.8372 23.75 35.0664 24.625 35.0664 25.8125C35.0664 26.5417 34.9727 27.3333 34.7852 28.1875C34.6185 29.0208 34.3164 30.2187 33.8789 31.7812C33.4622 33.3229 33.1289 34.5729 32.8789 35.5312C33.5872 34.8646 34.5143 33.9479 35.6602 32.7812C36.8268 31.6146 37.7227 30.7396 38.3477 30.1562C38.9935 29.5729 39.6185 29.1042 40.2227 28.75C41.0977 28.2708 41.8581 28.0312 42.5039 28.0312C43.4206 28.0312 44.0768 28.3958 44.4727 29.125C44.6602 29.4583 44.7539 29.7812 44.7539 30.0937C44.7539 31.1146 44.0352 32.0312 42.5977 32.8437C41.9727 33.1979 41.2643 33.5104 40.4727 33.7812C39.681 34.0312 38.4935 34.3646 36.9102 34.7812C35.3477 35.1771 34.0768 35.5208 33.0977 35.8125C34.0352 36.0833 35.2956 36.4375 36.8789 36.875C38.4831 37.2917 39.6914 37.6354 40.5039 37.9062C41.3164 38.1562 42.0352 38.4479 42.6602 38.7812Z" fill="white" fill-opacity="0.6"/>
</svg>
