<svg width="43" height="68" viewBox="0 0 43 68" fill="none" xmlns="http://www.w3.org/2000/svg">
<path d="M9.04141 68.4601C8.87781 68.4572 8.71791 68.4109 8.57811 68.3259C8.43832 68.2408 8.32366 68.1201 8.24592 67.9762C8.16817 67.8322 8.13013 67.6701 8.1357 67.5066C8.14126 67.343 8.19024 67.1839 8.2776 67.0456L19.0446 50.4114L0.990231 48.9856C0.804695 48.9697 0.628302 48.8981 0.484257 48.7801C0.340212 48.6621 0.235264 48.5032 0.183219 48.3245C0.131174 48.1457 0.134471 47.9553 0.192675 47.7784C0.25088 47.6015 0.361265 47.4464 0.50931 47.3335L16.8097 35.0219L0.260363 17.9973C0.126022 17.8588 0.0384811 17.6817 0.0100624 17.4909C-0.0183564 17.3001 0.0137777 17.1052 0.101942 16.9336C0.190308 16.7613 0.330979 16.6214 0.503776 16.534C0.676572 16.4466 0.872616 16.4161 1.06378 16.447L14.9539 18.7385L8.29457 7.41137C8.19405 7.23949 8.15185 7.0397 8.17429 6.84185C8.19672 6.64401 8.28259 6.45873 8.41905 6.31373C8.55605 6.16993 8.73606 6.07452 8.93198 6.04186C9.1279 6.00921 9.32912 6.04108 9.50536 6.13268L29.0534 16.3678L31.2713 1.35176C31.184 1.22959 31.1281 1.08786 31.1084 0.939011C31.0887 0.790164 31.1059 0.638763 31.1585 0.498118C31.211 0.357473 31.2973 0.231891 31.4098 0.132411C31.5222 0.0329307 31.6574 -0.0374013 31.8034 -0.0724024C31.9494 -0.107404 32.1018 -0.106002 32.2471 -0.0683209C32.3924 -0.0306399 32.5263 0.0421668 32.6369 0.143699C32.7475 0.245231 32.8315 0.37238 32.8814 0.513967C32.9314 0.655555 32.9458 0.807246 32.9234 0.955706L42.8304 14.8911C42.9002 14.9892 42.95 15.1001 42.977 15.2174C43.004 15.3347 43.0076 15.4562 42.9877 15.575C42.9677 15.6937 42.9246 15.8074 42.8607 15.9094C42.7968 16.0115 42.7134 16.0999 42.6154 16.1698C42.5173 16.2396 42.4064 16.2895 42.2891 16.3165C42.1717 16.3435 42.0502 16.3471 41.9315 16.3271C41.8127 16.3071 41.6991 16.264 41.597 16.2001C41.495 16.1362 41.4065 16.0529 41.3367 15.9548L32.748 3.87518L30.6772 17.9124C30.6558 18.0569 30.6002 18.1942 30.515 18.3129C30.4298 18.4315 30.3174 18.5281 30.1873 18.5945C30.0572 18.6609 29.9132 18.6953 29.7671 18.6948C29.621 18.6942 29.4772 18.6588 29.3476 18.5914L11.5026 9.25018L17.5339 19.4966C17.715 19.8078 17.7036 20.1926 17.5 20.4868C17.4012 20.6303 17.2636 20.7427 17.1033 20.8109C16.943 20.879 16.7666 20.9 16.5947 20.8715L3.51931 18.7215L18.8522 34.4957C18.9426 34.5896 19.012 34.7015 19.056 34.8242C19.1 34.9468 19.1175 35.0774 19.1073 35.2073C19.0972 35.3372 19.0596 35.4635 18.9971 35.5778C18.9346 35.6921 18.8486 35.7919 18.7447 35.8706L3.5476 47.3391L20.725 48.7027C20.8827 48.7167 21.0343 48.7711 21.1649 48.8607C21.2955 48.9503 21.4009 49.072 21.4708 49.2142C21.5407 49.3563 21.5729 49.514 21.5641 49.6722C21.5554 49.8304 21.5061 49.9836 21.4209 50.1172L9.81655 68.0414C9.64115 68.313 9.34694 68.4601 9.04141 68.4601Z" fill="#518F5A"/>
</svg>
